<?xml version="1.0" encoding="UTF-8"?>
<svg version="1.1" xmlns="http://www.w3.org/2000/svg" width="478" height="476">
<path d="M0 0 C2.93271904 0.96499343 4.10308294 1.9866402 6.1550293 4.26464844 C7.1121582 5.30878906 7.1121582 5.30878906 8.08862305 6.37402344 C8.73959961 7.10621094 9.39057617 7.83839844 10.0612793 8.59277344 C11.36272114 10.02564802 12.66479113 11.45795235 13.9675293 12.88964844 C14.89239136 13.91384888 14.89239136 13.91384888 15.8359375 14.95874023 C18.56928325 17.94349037 21.44484245 20.76992848 24.36206055 23.57324219 C25.79932514 24.95851271 27.18220814 26.39955944 28.5612793 27.84277344 C28.5612793 28.50277344 28.5612793 29.16277344 28.5612793 29.84277344 C29.2212793 29.84277344 29.8812793 29.84277344 30.5612793 29.84277344 C30.5612793 30.50277344 30.5612793 31.16277344 30.5612793 31.84277344 C31.2212793 31.84277344 31.8812793 31.84277344 32.5612793 31.84277344 C32.5612793 32.50277344 32.5612793 33.16277344 32.5612793 33.84277344 C33.12331055 34.07996094 33.6853418 34.31714844 34.2644043 34.56152344 C37.08021971 36.1322504 39.04083346 38.05748808 41.3112793 40.34277344 C42.11049805 41.13683594 42.9097168 41.93089844 43.7331543 42.74902344 C45.5612793 44.84277344 45.5612793 44.84277344 45.5612793 46.84277344 C46.2212793 46.84277344 46.8812793 46.84277344 47.5612793 46.84277344 C47.5612793 47.50277344 47.5612793 48.16277344 47.5612793 48.84277344 C48.2212793 48.84277344 48.8812793 48.84277344 49.5612793 48.84277344 C49.5612793 49.50277344 49.5612793 50.16277344 49.5612793 50.84277344 C50.2212793 50.84277344 50.8812793 50.84277344 51.5612793 50.84277344 C51.5612793 51.50277344 51.5612793 52.16277344 51.5612793 52.84277344 C52.3965918 53.18308594 52.3965918 53.18308594 53.2487793 53.53027344 C56.22287517 55.2182738 58.28136795 57.3095386 60.5612793 59.84277344 C60.5612793 60.50277344 60.5612793 61.16277344 60.5612793 61.84277344 C61.2212793 61.84277344 61.8812793 61.84277344 62.5612793 61.84277344 C62.5612793 62.50277344 62.5612793 63.16277344 62.5612793 63.84277344 C63.2212793 63.84277344 63.8812793 63.84277344 64.5612793 63.84277344 C65.99121094 65.29833984 65.99121094 65.29833984 67.65893555 67.31933594 C72.19934397 72.66140838 77.18931769 77.48999661 82.21557617 82.37011719 C83.25101562 83.38912109 83.25101562 83.38912109 84.30737305 84.42871094 C84.93313232 85.03763184 85.5588916 85.64655273 86.20361328 86.27392578 C87.5612793 87.84277344 87.5612793 87.84277344 87.5612793 89.84277344 C88.2212793 89.84277344 88.8812793 89.84277344 89.5612793 89.84277344 C89.5612793 90.50277344 89.5612793 91.16277344 89.5612793 91.84277344 C90.2212793 91.84277344 90.8812793 91.84277344 91.5612793 91.84277344 C91.5612793 92.50277344 91.5612793 93.16277344 91.5612793 93.84277344 C92.2212793 93.84277344 92.8812793 93.84277344 93.5612793 93.84277344 C93.5612793 94.50277344 93.5612793 95.16277344 93.5612793 95.84277344 C94.2212793 95.84277344 94.8812793 95.84277344 95.5612793 95.84277344 C95.5612793 96.50277344 95.5612793 97.16277344 95.5612793 97.84277344 C96.2212793 97.84277344 96.8812793 97.84277344 97.5612793 97.84277344 C100.1862793 100.21777344 100.1862793 100.21777344 102.5612793 102.84277344 C102.5612793 103.50277344 102.5612793 104.16277344 102.5612793 104.84277344 C103.2212793 104.84277344 103.8812793 104.84277344 104.5612793 104.84277344 C105.92089844 106.22802734 105.92089844 106.22802734 107.53393555 108.19433594 C112.89222969 114.49870172 118.88000156 120.1709172 124.79370117 125.94824219 C125.66446289 126.80804688 126.53522461 127.66785156 127.43237305 128.55371094 C128.22571045 129.33020996 129.01904785 130.10670898 129.83642578 130.90673828 C131.5612793 132.84277344 131.5612793 132.84277344 131.5612793 134.84277344 C132.2212793 134.84277344 132.8812793 134.84277344 133.5612793 134.84277344 C133.5612793 135.50277344 133.5612793 136.16277344 133.5612793 136.84277344 C134.2212793 136.84277344 134.8812793 136.84277344 135.5612793 136.84277344 C135.5612793 137.50277344 135.5612793 138.16277344 135.5612793 138.84277344 C136.2212793 138.84277344 136.8812793 138.84277344 137.5612793 138.84277344 C137.5612793 139.50277344 137.5612793 140.16277344 137.5612793 140.84277344 C138.2212793 140.84277344 138.8812793 140.84277344 139.5612793 140.84277344 C139.5612793 141.50277344 139.5612793 142.16277344 139.5612793 142.84277344 C140.2212793 142.84277344 140.8812793 142.84277344 141.5612793 142.84277344 C141.5612793 143.50277344 141.5612793 144.16277344 141.5612793 144.84277344 C142.42474976 145.19952148 142.42474976 145.19952148 143.30566406 145.56347656 C146.04182115 147.11531801 147.60615976 148.9228429 149.65112305 151.31152344 C155.41640097 157.88150606 161.64125819 163.94135551 167.89135742 170.04589844 C168.7530957 170.89667969 169.61483398 171.74746094 170.50268555 172.62402344 C171.28329346 173.38779297 172.06390137 174.1515625 172.86816406 174.93847656 C174.5612793 176.84277344 174.5612793 176.84277344 174.5612793 178.84277344 C175.2212793 178.84277344 175.8812793 178.84277344 176.5612793 178.84277344 C176.5612793 179.50277344 176.5612793 180.16277344 176.5612793 180.84277344 C177.2212793 180.84277344 177.8812793 180.84277344 178.5612793 180.84277344 C178.5612793 181.50277344 178.5612793 182.16277344 178.5612793 182.84277344 C179.2212793 182.84277344 179.8812793 182.84277344 180.5612793 182.84277344 C180.5612793 183.50277344 180.5612793 184.16277344 180.5612793 184.84277344 C181.2212793 184.84277344 181.8812793 184.84277344 182.5612793 184.84277344 C182.5612793 185.50277344 182.5612793 186.16277344 182.5612793 186.84277344 C183.2212793 186.84277344 183.8812793 186.84277344 184.5612793 186.84277344 C184.5612793 187.50277344 184.5612793 188.16277344 184.5612793 188.84277344 C185.2212793 188.84277344 185.8812793 188.84277344 186.5612793 188.84277344 C186.5612793 189.50277344 186.5612793 190.16277344 186.5612793 190.84277344 C187.2212793 190.84277344 187.8812793 190.84277344 188.5612793 190.84277344 C188.5612793 191.50277344 188.5612793 192.16277344 188.5612793 192.84277344 C189.2212793 192.84277344 189.8812793 192.84277344 190.5612793 192.84277344 C192.24860207 194.82537769 193.91493987 196.82600764 195.5612793 198.84277344 C196.2212793 199.17277344 196.8812793 199.50277344 197.5612793 199.84277344 C197.5612793 200.50277344 197.5612793 201.16277344 197.5612793 201.84277344 C198.2212793 201.84277344 198.8812793 201.84277344 199.5612793 201.84277344 C200.90112305 203.20605469 200.90112305 203.20605469 202.4987793 205.15527344 C207.20853554 210.69386877 212.38896981 215.74326455 217.5612793 220.84277344 C221.25440898 224.48392207 224.92490767 228.14467328 228.5612793 231.84277344 C229.3140918 232.59945312 230.0669043 233.35613281 230.8425293 234.13574219 C231.4922168 234.8228125 232.1419043 235.50988281 232.8112793 236.21777344 C233.37331055 236.80300781 233.9353418 237.38824219 234.5144043 237.99121094 C235.5612793 239.84277344 235.5612793 239.84277344 235.50830078 242.26538086 C234.30306532 245.54552285 232.64007024 247.24978742 230.15893555 249.70605469 C229.26883789 250.59228516 228.37874023 251.47851562 227.46166992 252.39160156 C226.52516602 253.30361328 225.58866211 254.215625 224.6237793 255.15527344 C223.69114258 256.08662109 222.75850586 257.01796875 221.79760742 257.97753906 C214.84184248 264.84277344 214.84184248 264.84277344 212.5612793 264.84277344 C212.2931543 265.48214844 212.0250293 266.12152344 211.7487793 266.78027344 C210.5612793 268.84277344 210.5612793 268.84277344 207.5612793 269.84277344 C207.5612793 270.50277344 207.5612793 271.16277344 207.5612793 271.84277344 C206.9012793 271.84277344 206.2412793 271.84277344 205.5612793 271.84277344 C205.5612793 272.50277344 205.5612793 273.16277344 205.5612793 273.84277344 C204.9012793 273.84277344 204.2412793 273.84277344 203.5612793 273.84277344 C203.5612793 274.50277344 203.5612793 275.16277344 203.5612793 275.84277344 C202.11669922 277.26611328 202.11669922 277.26611328 200.10424805 278.92871094 C195.45336613 282.88416259 191.16392104 287.1277909 186.8737793 291.46777344 C185.77453125 292.57378906 185.77453125 292.57378906 184.65307617 293.70214844 C183.58089844 294.78109375 183.58089844 294.78109375 182.48706055 295.88183594 C181.46926514 296.90519043 181.46926514 296.90519043 180.4309082 297.94921875 C179.27819735 299.11668093 178.13293368 300.29161855 177.00024414 301.47851562 C175.88911089 302.63481028 174.73044388 303.74519036 173.5612793 304.84277344 C172.9012793 304.84277344 172.2412793 304.84277344 171.5612793 304.84277344 C171.5612793 305.50277344 171.5612793 306.16277344 171.5612793 306.84277344 C170.9012793 306.84277344 170.2412793 306.84277344 169.5612793 306.84277344 C169.5612793 307.50277344 169.5612793 308.16277344 169.5612793 308.84277344 C168.9012793 308.84277344 168.2412793 308.84277344 167.5612793 308.84277344 C167.5612793 309.50277344 167.5612793 310.16277344 167.5612793 310.84277344 C166.9012793 310.84277344 166.2412793 310.84277344 165.5612793 310.84277344 C165.5612793 311.50277344 165.5612793 312.16277344 165.5612793 312.84277344 C164.05737305 314.32324219 164.05737305 314.32324219 161.9987793 316.03027344 C158.45131756 319.02954837 155.19605057 322.18272476 152.0065918 325.55761719 C150.5612793 326.84277344 150.5612793 326.84277344 148.5612793 326.84277344 C148.5612793 327.50277344 148.5612793 328.16277344 148.5612793 328.84277344 C147.9012793 328.84277344 147.2412793 328.84277344 146.5612793 328.84277344 C146.5612793 329.50277344 146.5612793 330.16277344 146.5612793 330.84277344 C145.9012793 330.84277344 145.2412793 330.84277344 144.5612793 330.84277344 C144.5612793 331.50277344 144.5612793 332.16277344 144.5612793 332.84277344 C143.9012793 332.84277344 143.2412793 332.84277344 142.5612793 332.84277344 C142.5612793 333.50277344 142.5612793 334.16277344 142.5612793 334.84277344 C140.57867504 336.53009621 138.57804509 338.19643401 136.5612793 339.84277344 C136.2312793 340.50277344 135.9012793 341.16277344 135.5612793 341.84277344 C134.9012793 341.84277344 134.2412793 341.84277344 133.5612793 341.84277344 C133.5612793 342.50277344 133.5612793 343.16277344 133.5612793 343.84277344 C131.9519043 345.42871094 131.9519043 345.42871094 129.8112793 347.21777344 C127.49224228 349.1803507 125.30908645 351.10160293 123.1862793 353.28027344 C121.5612793 354.84277344 121.5612793 354.84277344 119.5612793 354.84277344 C119.33311523 355.39835937 119.10495117 355.95394531 118.86987305 356.52636719 C117.19269618 359.49522056 115.06464026 361.52892862 112.6237793 363.90527344 C111.74850586 364.7625 110.87323242 365.61972656 109.97143555 366.50292969 C108.7784082 367.66115234 108.7784082 367.66115234 107.5612793 368.84277344 C107.00311523 369.43960937 106.44495117 370.03644531 105.86987305 370.65136719 C104.5612793 371.84277344 104.5612793 371.84277344 102.5612793 371.84277344 C102.5612793 372.50277344 102.5612793 373.16277344 102.5612793 373.84277344 C101.9012793 373.84277344 101.2412793 373.84277344 100.5612793 373.84277344 C100.5612793 374.50277344 100.5612793 375.16277344 100.5612793 375.84277344 C99.9012793 375.84277344 99.2412793 375.84277344 98.5612793 375.84277344 C98.5612793 376.50277344 98.5612793 377.16277344 98.5612793 377.84277344 C97.9012793 377.84277344 97.2412793 377.84277344 96.5612793 377.84277344 C96.5612793 378.50277344 96.5612793 379.16277344 96.5612793 379.84277344 C95.12329102 381.25512695 95.12329102 381.25512695 93.1159668 382.90917969 C87.53332382 387.65405715 82.49410197 392.89365982 77.3894043 398.14160156 C76.66495117 398.87701172 75.94049805 399.61242187 75.1940918 400.37011719 C74.21786865 401.3715979 74.21786865 401.3715979 73.22192383 402.39331055 C71.5612793 403.84277344 71.5612793 403.84277344 69.5612793 403.84277344 C69.5612793 404.50277344 69.5612793 405.16277344 69.5612793 405.84277344 C68.06518555 407.28027344 68.06518555 407.28027344 66.1237793 408.84277344 C63.40939692 410.98802387 63.40939692 410.98802387 61.5612793 413.84277344 C60.9012793 413.84277344 60.2412793 413.84277344 59.5612793 413.84277344 C59.5612793 414.50277344 59.5612793 415.16277344 59.5612793 415.84277344 C58.33862305 417.04199219 58.33862305 417.04199219 56.4987793 418.53027344 C51.22488616 422.97744819 46.46472918 427.91517541 41.66650391 432.86303711 C41.03623291 433.50474854 40.40596191 434.14645996 39.7565918 434.80761719 C38.90605225 435.68341431 38.90605225 435.68341431 38.03833008 436.5769043 C36.5612793 437.84277344 36.5612793 437.84277344 34.5612793 437.84277344 C34.5612793 438.50277344 34.5612793 439.16277344 34.5612793 439.84277344 C33.9012793 439.84277344 33.2412793 439.84277344 32.5612793 439.84277344 C32.5612793 440.50277344 32.5612793 441.16277344 32.5612793 441.84277344 C31.9012793 441.84277344 31.2412793 441.84277344 30.5612793 441.84277344 C30.5612793 442.50277344 30.5612793 443.16277344 30.5612793 443.84277344 C29.9012793 443.84277344 29.2412793 443.84277344 28.5612793 443.84277344 C28.5612793 444.50277344 28.5612793 445.16277344 28.5612793 445.84277344 C27.9012793 445.84277344 27.2412793 445.84277344 26.5612793 445.84277344 C26.2931543 446.44089844 26.0250293 447.03902344 25.7487793 447.65527344 C24.56210523 449.84125197 23.46528817 451.25609938 21.5612793 452.84277344 C20.9012793 452.84277344 20.2412793 452.84277344 19.5612793 452.84277344 C19.5612793 453.50277344 19.5612793 454.16277344 19.5612793 454.84277344 C18.9012793 454.84277344 18.2412793 454.84277344 17.5612793 454.84277344 C17.5612793 455.50277344 17.5612793 456.16277344 17.5612793 456.84277344 C16.9012793 456.84277344 16.2412793 456.84277344 15.5612793 456.84277344 C15.5612793 457.50277344 15.5612793 458.16277344 15.5612793 458.84277344 C14.9012793 458.84277344 14.2412793 458.84277344 13.5612793 458.84277344 C13.5612793 459.50277344 13.5612793 460.16277344 13.5612793 460.84277344 C12.0925293 462.28808594 12.0925293 462.28808594 10.0612793 463.96777344 C6.95514276 466.56991604 4.22058996 469.28148791 1.4987793 472.28027344 C-1.31151642 475.12369641 -2.12185081 475.77939946 -6.1887207 476.59277344 C-9.8586148 475.7458748 -11.22457935 474.85400568 -13.4387207 471.84277344 C-13.4387207 471.18277344 -13.4387207 470.52277344 -13.4387207 469.84277344 C-14.25083008 469.51792969 -14.25083008 469.51792969 -15.0793457 469.18652344 C-18.25517414 467.37777347 -20.64600152 464.92553544 -23.1887207 462.34277344 C-23.69532227 461.84390625 -24.20192383 461.34503906 -24.72387695 460.83105469 C-28.4387207 457.09618483 -28.4387207 457.09618483 -28.4387207 454.84277344 C-29.0987207 454.84277344 -29.7587207 454.84277344 -30.4387207 454.84277344 C-30.4387207 454.18277344 -30.4387207 453.52277344 -30.4387207 452.84277344 C-31.02137695 452.58496094 -31.6040332 452.32714844 -32.2043457 452.06152344 C-34.61901101 450.74443327 -36.25612248 449.2918896 -38.1887207 447.34277344 C-38.80231445 446.73433594 -39.4159082 446.12589844 -40.0480957 445.49902344 C-41.4387207 443.84277344 -41.4387207 443.84277344 -41.4387207 441.84277344 C-42.0987207 441.84277344 -42.7587207 441.84277344 -43.4387207 441.84277344 C-44.76318359 440.49267578 -44.76318359 440.49267578 -46.34887695 438.55371094 C-49.39000665 434.97563301 -52.59156122 431.61344126 -55.93481445 428.31933594 C-56.41697418 427.84284607 -56.89913391 427.3663562 -57.39590454 426.87542725 C-59.40109313 424.89726811 -61.41047069 422.92345755 -63.42382812 420.95361328 C-64.91096453 419.49648901 -66.39197075 418.03335586 -67.87231445 416.56933594 C-68.74944092 415.70904785 -69.62656738 414.84875977 -70.53027344 413.96240234 C-72.4387207 411.84277344 -72.4387207 411.84277344 -72.4387207 409.84277344 C-73.0987207 409.84277344 -73.7587207 409.84277344 -74.4387207 409.84277344 C-74.4387207 409.18277344 -74.4387207 408.52277344 -74.4387207 407.84277344 C-75.0987207 407.84277344 -75.7587207 407.84277344 -76.4387207 407.84277344 C-76.4387207 407.18277344 -76.4387207 406.52277344 -76.4387207 405.84277344 C-77.0987207 405.84277344 -77.7587207 405.84277344 -78.4387207 405.84277344 C-78.4387207 405.18277344 -78.4387207 404.52277344 -78.4387207 403.84277344 C-79.0987207 403.84277344 -79.7587207 403.84277344 -80.4387207 403.84277344 C-82.0637207 402.46777344 -82.0637207 402.46777344 -83.4387207 400.84277344 C-83.4387207 400.18277344 -83.4387207 399.52277344 -83.4387207 398.84277344 C-84.0987207 398.84277344 -84.7587207 398.84277344 -85.4387207 398.84277344 C-85.4387207 398.18277344 -85.4387207 397.52277344 -85.4387207 396.84277344 C-86.0987207 396.84277344 -86.7587207 396.84277344 -87.4387207 396.84277344 C-87.4387207 396.18277344 -87.4387207 395.52277344 -87.4387207 394.84277344 C-88.0987207 394.84277344 -88.7587207 394.84277344 -89.4387207 394.84277344 C-90.70825195 393.54980469 -90.70825195 393.54980469 -92.2512207 391.65527344 C-96.27482791 386.88687085 -100.68471675 382.56478725 -105.17041016 378.23657227 C-106.62930404 376.80795208 -108.0386884 375.32912352 -109.4387207 373.84277344 C-109.4387207 373.18277344 -109.4387207 372.52277344 -109.4387207 371.84277344 C-110.0987207 371.84277344 -110.7587207 371.84277344 -111.4387207 371.84277344 C-111.4387207 371.18277344 -111.4387207 370.52277344 -111.4387207 369.84277344 C-112.0368457 369.57464844 -112.6349707 369.30652344 -113.2512207 369.03027344 C-115.43719924 367.84359937 -116.85204664 366.74678231 -118.4387207 364.84277344 C-118.4387207 364.18277344 -118.4387207 363.52277344 -118.4387207 362.84277344 C-119.0987207 362.84277344 -119.7587207 362.84277344 -120.4387207 362.84277344 C-120.4387207 362.18277344 -120.4387207 361.52277344 -120.4387207 360.84277344 C-121.0987207 360.84277344 -121.7587207 360.84277344 -122.4387207 360.84277344 C-122.4387207 360.18277344 -122.4387207 359.52277344 -122.4387207 358.84277344 C-123.0987207 358.84277344 -123.7587207 358.84277344 -124.4387207 358.84277344 C-124.4387207 358.18277344 -124.4387207 357.52277344 -124.4387207 356.84277344 C-125.0987207 356.84277344 -125.7587207 356.84277344 -126.4387207 356.84277344 C-126.4387207 356.18277344 -126.4387207 355.52277344 -126.4387207 354.84277344 C-127.0987207 354.84277344 -127.7587207 354.84277344 -128.4387207 354.84277344 C-129.72802734 353.52783203 -129.72802734 353.52783203 -131.28637695 351.61621094 C-134.48577443 347.85192114 -137.85876357 344.34799345 -141.37231445 340.88183594 C-141.89878571 340.36103455 -142.42525696 339.84023315 -142.96768188 339.3036499 C-145.16412475 337.13426734 -147.36471389 334.9691755 -149.56933594 332.80810547 C-151.19546989 331.21198445 -152.81547965 329.60985021 -154.43481445 328.00683594 C-154.93782578 327.51728424 -155.4408371 327.02773254 -155.95909119 326.52334595 C-157.15734063 325.33393807 -158.30355434 324.09252948 -159.4387207 322.84277344 C-159.4387207 322.18277344 -159.4387207 321.52277344 -159.4387207 320.84277344 C-160.0987207 320.84277344 -160.7587207 320.84277344 -161.4387207 320.84277344 C-161.4387207 320.18277344 -161.4387207 319.52277344 -161.4387207 318.84277344 C-162.0987207 318.84277344 -162.7587207 318.84277344 -163.4387207 318.84277344 C-163.4387207 318.18277344 -163.4387207 317.52277344 -163.4387207 316.84277344 C-164.7587207 316.18277344 -166.0787207 315.52277344 -167.4387207 314.84277344 C-167.4387207 314.18277344 -167.4387207 313.52277344 -167.4387207 312.84277344 C-168.0987207 312.84277344 -168.7587207 312.84277344 -169.4387207 312.84277344 C-169.4387207 312.18277344 -169.4387207 311.52277344 -169.4387207 310.84277344 C-170.0987207 310.84277344 -170.7587207 310.84277344 -171.4387207 310.84277344 C-171.4387207 310.18277344 -171.4387207 309.52277344 -171.4387207 308.84277344 C-172.0987207 308.84277344 -172.7587207 308.84277344 -173.4387207 308.84277344 C-174.98950195 307.26855469 -174.98950195 307.26855469 -176.7512207 305.15527344 C-180.15265216 301.15894142 -183.74674455 297.47454819 -187.5246582 293.83105469 C-188.25942383 293.11304688 -188.99418945 292.39503906 -189.7512207 291.65527344 C-190.44860352 290.98109375 -191.14598633 290.30691406 -191.86450195 289.61230469 C-193.4387207 287.84277344 -193.4387207 287.84277344 -193.4387207 285.84277344 C-193.96981445 285.63652344 -194.5009082 285.43027344 -195.0480957 285.21777344 C-198.44645506 283.26316152 -200.94927999 280.62153627 -203.6887207 277.84277344 C-204.24301758 277.29621094 -204.79731445 276.74964844 -205.3684082 276.18652344 C-209.4387207 272.09616014 -209.4387207 272.09616014 -209.4387207 269.84277344 C-210.4287207 269.51277344 -211.4187207 269.18277344 -212.4387207 268.84277344 C-212.4387207 268.18277344 -212.4387207 267.52277344 -212.4387207 266.84277344 C-213.0987207 266.84277344 -213.7587207 266.84277344 -214.4387207 266.84277344 C-214.4387207 266.18277344 -214.4387207 265.52277344 -214.4387207 264.84277344 C-215.0987207 264.84277344 -215.7587207 264.84277344 -216.4387207 264.84277344 C-217.8762207 263.34667969 -217.8762207 263.34667969 -219.4387207 261.40527344 C-221.58397114 258.69089106 -221.58397114 258.69089106 -224.4387207 256.84277344 C-224.4387207 256.18277344 -224.4387207 255.52277344 -224.4387207 254.84277344 C-225.0987207 254.84277344 -225.7587207 254.84277344 -226.4387207 254.84277344 C-227.84887695 253.40917969 -227.84887695 253.40917969 -229.5012207 251.40527344 C-232.9658073 247.26681376 -236.77473699 243.69018008 -240.8137207 240.11621094 C-242.4387207 237.84277344 -242.4387207 237.84277344 -242.1887207 234.56933594 C-241.9412207 233.66957031 -241.6937207 232.76980469 -241.4387207 231.84277344 C-240.7787207 231.84277344 -240.1187207 231.84277344 -239.4387207 231.84277344 C-239.4387207 231.18277344 -239.4387207 230.52277344 -239.4387207 229.84277344 C-238.7787207 229.84277344 -238.1187207 229.84277344 -237.4387207 229.84277344 C-237.4387207 229.18277344 -237.4387207 228.52277344 -237.4387207 227.84277344 C-236.00512695 226.43261719 -236.00512695 226.43261719 -234.0012207 224.78027344 C-229.84910283 221.27206689 -226.08064837 217.48826939 -222.3215332 213.56542969 C-220.4387207 211.84277344 -220.4387207 211.84277344 -218.4387207 211.84277344 C-218.4387207 211.18277344 -218.4387207 210.52277344 -218.4387207 209.84277344 C-217.7787207 209.84277344 -217.1187207 209.84277344 -216.4387207 209.84277344 C-216.4387207 209.18277344 -216.4387207 208.52277344 -216.4387207 207.84277344 C-215.7787207 207.84277344 -215.1187207 207.84277344 -214.4387207 207.84277344 C-214.4387207 207.18277344 -214.4387207 206.52277344 -214.4387207 205.84277344 C-213.7787207 205.84277344 -213.1187207 205.84277344 -212.4387207 205.84277344 C-212.4387207 205.18277344 -212.4387207 204.52277344 -212.4387207 203.84277344 C-211.7787207 203.84277344 -211.1187207 203.84277344 -210.4387207 203.84277344 C-210.4387207 203.18277344 -210.4387207 202.52277344 -210.4387207 201.84277344 C-208.9831543 200.4128418 -208.9831543 200.4128418 -206.9621582 198.74511719 C-201.62008576 194.20470877 -196.79149753 189.21473505 -191.91137695 184.18847656 C-191.23204102 183.49818359 -190.55270508 182.80789062 -189.8527832 182.09667969 C-189.2438623 181.47092041 -188.63494141 180.84516113 -188.00756836 180.20043945 C-186.4387207 178.84277344 -186.4387207 178.84277344 -184.4387207 178.84277344 C-184.4387207 178.18277344 -184.4387207 177.52277344 -184.4387207 176.84277344 C-183.7787207 176.84277344 -183.1187207 176.84277344 -182.4387207 176.84277344 C-182.4387207 176.18277344 -182.4387207 175.52277344 -182.4387207 174.84277344 C-181.7787207 174.84277344 -181.1187207 174.84277344 -180.4387207 174.84277344 C-180.4387207 174.18277344 -180.4387207 173.52277344 -180.4387207 172.84277344 C-179.7787207 172.84277344 -179.1187207 172.84277344 -178.4387207 172.84277344 C-178.4387207 172.18277344 -178.4387207 171.52277344 -178.4387207 170.84277344 C-177.06665039 169.49194336 -177.06665039 169.49194336 -175.1105957 167.88574219 C-169.67692664 163.2647298 -164.70667512 158.21910226 -159.6887207 153.15527344 C-158.74755247 152.20907309 -157.80614744 151.26310821 -156.86450195 150.31738281 C-155.13970323 148.58392298 -153.41594067 146.84943102 -151.69360352 145.11352539 C-150.94949219 144.36417725 -150.20538086 143.6148291 -149.4387207 142.84277344 C-148.72296875 142.08504639 -148.0072168 141.32731934 -147.26977539 140.54663086 C-145.4387207 138.84277344 -145.4387207 138.84277344 -143.4387207 138.84277344 C-143.4387207 138.18277344 -143.4387207 137.52277344 -143.4387207 136.84277344 C-142.14575195 135.57324219 -142.14575195 135.57324219 -140.2512207 134.03027344 C-135.48281812 130.00666623 -131.16073452 125.59677739 -126.83251953 121.11108398 C-125.40389935 119.6521901 -123.92507078 118.24280574 -122.4387207 116.84277344 C-121.7787207 116.84277344 -121.1187207 116.84277344 -120.4387207 116.84277344 C-120.4387207 116.18277344 -120.4387207 115.52277344 -120.4387207 114.84277344 C-119.7787207 114.84277344 -119.1187207 114.84277344 -118.4387207 114.84277344 C-118.19508789 114.27300781 -117.95145508 113.70324219 -117.70043945 113.11621094 C-114.4533284 107.26537925 -108.51070837 102.67918437 -103.4387207 98.40527344 C-100.44942104 96.18887411 -100.44942104 96.18887411 -99.4387207 93.84277344 C-98.7787207 93.84277344 -98.1187207 93.84277344 -97.4387207 93.84277344 C-97.4387207 93.18277344 -97.4387207 92.52277344 -97.4387207 91.84277344 C-96.7787207 91.84277344 -96.1187207 91.84277344 -95.4387207 91.84277344 C-95.4387207 91.18277344 -95.4387207 90.52277344 -95.4387207 89.84277344 C-94.21606445 88.64355469 -94.21606445 88.64355469 -92.3762207 87.15527344 C-87.10232757 82.70809869 -82.34217059 77.77037147 -77.54394531 72.82250977 C-76.91367432 72.18079834 -76.28340332 71.53908691 -75.6340332 70.87792969 C-75.06700684 70.29406494 -74.49998047 69.7102002 -73.91577148 69.10864258 C-72.4387207 67.84277344 -72.4387207 67.84277344 -70.4387207 67.84277344 C-70.4387207 67.18277344 -70.4387207 66.52277344 -70.4387207 65.84277344 C-69.7787207 65.84277344 -69.1187207 65.84277344 -68.4387207 65.84277344 C-68.4387207 65.18277344 -68.4387207 64.52277344 -68.4387207 63.84277344 C-67.7787207 63.84277344 -67.1187207 63.84277344 -66.4387207 63.84277344 C-66.4387207 63.18277344 -66.4387207 62.52277344 -66.4387207 61.84277344 C-65.7787207 61.84277344 -65.1187207 61.84277344 -64.4387207 61.84277344 C-64.2118457 61.28589844 -63.9849707 60.72902344 -63.7512207 60.15527344 C-62.06322034 57.18117756 -59.97195554 55.12268479 -57.4387207 52.84277344 C-56.7787207 52.84277344 -56.1187207 52.84277344 -55.4387207 52.84277344 C-55.4387207 52.18277344 -55.4387207 51.52277344 -55.4387207 50.84277344 C-54.7787207 50.84277344 -54.1187207 50.84277344 -53.4387207 50.84277344 C-53.4387207 50.18277344 -53.4387207 49.52277344 -53.4387207 48.84277344 C-52.7787207 48.84277344 -52.1187207 48.84277344 -51.4387207 48.84277344 C-51.4387207 48.18277344 -51.4387207 47.52277344 -51.4387207 46.84277344 C-50.7787207 46.84277344 -50.1187207 46.84277344 -49.4387207 46.84277344 C-49.4387207 46.18277344 -49.4387207 45.52277344 -49.4387207 44.84277344 C-48.7787207 44.84277344 -48.1187207 44.84277344 -47.4387207 44.84277344 C-47.4387207 44.18277344 -47.4387207 43.52277344 -47.4387207 42.84277344 C-46.00512695 41.43261719 -46.00512695 41.43261719 -44.0012207 39.78027344 C-39.21820769 35.71302821 -34.83818414 31.31731304 -30.4387207 26.84277344 C-25.52784159 21.84809093 -20.57696554 17.02573079 -15.26049805 12.46386719 C-11.5972484 9.20415429 -8.36710239 5.51302384 -5.05200195 1.90527344 C-2.4387207 -0.15722656 -2.4387207 -0.15722656 0 0 Z M-1.4387207 25.84277344 C-1.4387207 26.50277344 -1.4387207 27.16277344 -1.4387207 27.84277344 C-2.0987207 27.84277344 -2.7587207 27.84277344 -3.4387207 27.84277344 C-3.4387207 28.50277344 -3.4387207 29.16277344 -3.4387207 29.84277344 C-4.0987207 29.84277344 -4.7587207 29.84277344 -5.4387207 29.84277344 C-5.4387207 30.50277344 -5.4387207 31.16277344 -5.4387207 31.84277344 C-6.0987207 31.84277344 -6.7587207 31.84277344 -7.4387207 31.84277344 C-7.4387207 32.50277344 -7.4387207 33.16277344 -7.4387207 33.84277344 C-8.01992676 34.09728271 -8.60113281 34.35179199 -9.19995117 34.61401367 C-11.67664651 35.9733602 -13.29006516 37.48188441 -15.2590332 39.50292969 C-15.95899414 40.21384766 -16.65895508 40.92476562 -17.38012695 41.65722656 C-18.46100586 42.77000977 -18.46100586 42.77000977 -19.5637207 43.90527344 C-21.00159632 45.37750537 -22.44159778 46.84766499 -23.8840332 48.31542969 C-24.51841309 48.96777588 -25.15279297 49.62012207 -25.80639648 50.29223633 C-27.4387207 51.84277344 -27.4387207 51.84277344 -29.4387207 52.84277344 C-29.4387207 53.50277344 -29.4387207 54.16277344 -29.4387207 54.84277344 C-30.0987207 54.84277344 -30.7587207 54.84277344 -31.4387207 54.84277344 C-31.4387207 55.50277344 -31.4387207 56.16277344 -31.4387207 56.84277344 C-32.0987207 56.84277344 -32.7587207 56.84277344 -33.4387207 56.84277344 C-34.79259006 58.49280172 -36.12550213 60.16021214 -37.4387207 61.84277344 C-38.4287207 62.33777344 -38.4287207 62.33777344 -39.4387207 62.84277344 C-39.4387207 63.50277344 -39.4387207 64.16277344 -39.4387207 64.84277344 C-39.98834473 65.06570068 -40.53796875 65.28862793 -41.10424805 65.51831055 C-44.14020193 67.24075876 -46.37847889 69.55420338 -48.7902832 72.03417969 C-49.2903891 72.53948715 -49.790495 73.04479462 -50.30575562 73.56541443 C-51.89659013 75.17400428 -53.48055154 76.78914163 -55.0637207 78.40527344 C-56.65489847 80.02407581 -58.24751771 81.64139165 -59.84310913 83.25584412 C-60.83419168 84.25917771 -61.82258878 85.26517252 -62.80801392 86.27406311 C-66.21525687 89.73104152 -66.21525687 89.73104152 -68.4387207 90.84277344 C-68.4387207 91.50277344 -68.4387207 92.16277344 -68.4387207 92.84277344 C-69.0987207 92.84277344 -69.7587207 92.84277344 -70.4387207 92.84277344 C-70.4387207 93.50277344 -70.4387207 94.16277344 -70.4387207 94.84277344 C-71.0987207 94.84277344 -71.7587207 94.84277344 -72.4387207 94.84277344 C-72.4387207 95.50277344 -72.4387207 96.16277344 -72.4387207 96.84277344 C-73.0987207 96.84277344 -73.7587207 96.84277344 -74.4387207 96.84277344 C-77.10538737 99.17610677 -77.10538737 99.17610677 -79.4387207 101.84277344 C-79.4387207 102.50277344 -79.4387207 103.16277344 -79.4387207 103.84277344 C-80.0987207 103.84277344 -80.7587207 103.84277344 -81.4387207 103.84277344 C-81.4387207 104.50277344 -81.4387207 105.16277344 -81.4387207 105.84277344 C-82.0987207 105.84277344 -82.7587207 105.84277344 -83.4387207 105.84277344 C-83.4387207 106.50277344 -83.4387207 107.16277344 -83.4387207 107.84277344 C-83.99285645 108.0702124 -84.54699219 108.29765137 -85.11791992 108.53198242 C-88.11271775 110.22344776 -90.16238306 112.36059706 -92.5715332 114.81542969 C-93.04944305 115.29854111 -93.52735291 115.78165253 -94.01974487 116.27940369 C-95.53925685 117.81666385 -97.0518846 119.3604667 -98.5637207 120.90527344 C-100.08356629 122.45274821 -101.60485489 123.9987327 -103.12911987 125.54185486 C-104.50790813 126.93848145 -105.88188135 128.33985667 -107.25561523 129.74145508 C-109.4387207 131.84277344 -109.4387207 131.84277344 -111.4387207 132.84277344 C-111.4387207 133.50277344 -111.4387207 134.16277344 -111.4387207 134.84277344 C-111.9955957 135.06964844 -112.5524707 135.29652344 -113.1262207 135.53027344 C-116.10031658 137.2182738 -118.15880935 139.3095386 -120.4387207 141.84277344 C-120.4387207 142.50277344 -120.4387207 143.16277344 -120.4387207 143.84277344 C-121.0987207 143.84277344 -121.7587207 143.84277344 -122.4387207 143.84277344 C-122.4387207 144.50277344 -122.4387207 145.16277344 -122.4387207 145.84277344 C-123.29723633 146.22949219 -123.29723633 146.22949219 -124.1730957 146.62402344 C-126.65001065 147.95643286 -128.57283731 149.49333462 -130.6887207 151.34277344 C-131.39512695 151.95121094 -132.1015332 152.55964844 -132.8293457 153.18652344 C-134.67101575 154.69693711 -134.67101575 154.69693711 -134.4387207 156.84277344 C-135.0987207 156.84277344 -135.7587207 156.84277344 -136.4387207 156.84277344 C-136.4387207 157.50277344 -136.4387207 158.16277344 -136.4387207 158.84277344 C-137.0987207 158.84277344 -137.7587207 158.84277344 -138.4387207 158.84277344 C-140.10749791 160.53082976 -140.10749791 160.53082976 -141.8137207 162.65527344 C-143.67438352 164.905282 -145.30744774 166.74627629 -147.6652832 168.47949219 C-148.54313477 169.15431641 -148.54313477 169.15431641 -149.4387207 169.84277344 C-149.4387207 170.50277344 -149.4387207 171.16277344 -149.4387207 171.84277344 C-150.0987207 171.84277344 -150.7587207 171.84277344 -151.4387207 171.84277344 C-151.4387207 172.50277344 -151.4387207 173.16277344 -151.4387207 173.84277344 C-152.0987207 173.84277344 -152.7587207 173.84277344 -153.4387207 173.84277344 C-153.4387207 174.50277344 -153.4387207 175.16277344 -153.4387207 175.84277344 C-154.0987207 175.84277344 -154.7587207 175.84277344 -155.4387207 175.84277344 C-155.4387207 176.50277344 -155.4387207 177.16277344 -155.4387207 177.84277344 C-156.0987207 177.84277344 -156.7587207 177.84277344 -157.4387207 177.84277344 C-160.10538737 180.17610677 -160.10538737 180.17610677 -162.4387207 182.84277344 C-162.4387207 183.50277344 -162.4387207 184.16277344 -162.4387207 184.84277344 C-163.0987207 184.84277344 -163.7587207 184.84277344 -164.4387207 184.84277344 C-164.4387207 185.50277344 -164.4387207 186.16277344 -164.4387207 186.84277344 C-164.99285645 187.0702124 -165.54699219 187.29765137 -166.11791992 187.53198242 C-169.11271775 189.22344776 -171.16238306 191.36059706 -173.5715332 193.81542969 C-174.04944305 194.29854111 -174.52735291 194.78165253 -175.01974487 195.27940369 C-176.53925685 196.81666385 -178.0518846 198.3604667 -179.5637207 199.90527344 C-181.08356629 201.45274821 -182.60485489 202.9987327 -184.12911987 204.54185486 C-185.50790813 205.93848145 -186.88188135 207.33985667 -188.25561523 208.74145508 C-190.4387207 210.84277344 -190.4387207 210.84277344 -192.4387207 211.84277344 C-192.4387207 212.50277344 -192.4387207 213.16277344 -192.4387207 213.84277344 C-193.0987207 213.84277344 -193.7587207 213.84277344 -194.4387207 213.84277344 C-194.4387207 214.50277344 -194.4387207 215.16277344 -194.4387207 215.84277344 C-195.0780957 216.11089844 -195.7174707 216.37902344 -196.3762207 216.65527344 C-198.77003757 217.72945096 -198.77003757 217.72945096 -199.4387207 220.84277344 C-200.0987207 220.84277344 -200.7587207 220.84277344 -201.4387207 220.84277344 C-201.4387207 221.50277344 -201.4387207 222.16277344 -201.4387207 222.84277344 C-202.0987207 222.84277344 -202.7587207 222.84277344 -203.4387207 222.84277344 C-203.4387207 223.50277344 -203.4387207 224.16277344 -203.4387207 224.84277344 C-204.01106445 225.08769531 -204.5834082 225.33261719 -205.1730957 225.58496094 C-207.81896472 227.05387443 -209.58725209 228.79625588 -211.6887207 230.96777344 C-212.74833008 232.05445313 -212.74833008 232.05445313 -213.8293457 233.16308594 C-214.36043945 233.71738281 -214.8915332 234.27167969 -215.4387207 234.84277344 C-213.72462524 239.38063605 -213.72462524 239.38063605 -210.4387207 242.84277344 C-209.7787207 242.84277344 -209.1187207 242.84277344 -208.4387207 242.84277344 C-208.4387207 243.50277344 -208.4387207 244.16277344 -208.4387207 244.84277344 C-207.7787207 244.84277344 -207.1187207 244.84277344 -206.4387207 244.84277344 C-206.4387207 245.50277344 -206.4387207 246.16277344 -206.4387207 246.84277344 C-205.7787207 246.84277344 -205.1187207 246.84277344 -204.4387207 246.84277344 C-204.4387207 247.50277344 -204.4387207 248.16277344 -204.4387207 248.84277344 C-203.7787207 248.84277344 -203.1187207 248.84277344 -202.4387207 248.84277344 C-202.4387207 249.50277344 -202.4387207 250.16277344 -202.4387207 250.84277344 C-201.7787207 250.84277344 -201.1187207 250.84277344 -200.4387207 250.84277344 C-200.4387207 251.50277344 -200.4387207 252.16277344 -200.4387207 252.84277344 C-199.7787207 252.84277344 -199.1187207 252.84277344 -198.4387207 252.84277344 C-198.4387207 253.50277344 -198.4387207 254.16277344 -198.4387207 254.84277344 C-197.7787207 254.84277344 -197.1187207 254.84277344 -196.4387207 254.84277344 C-196.1087207 255.83277344 -195.7787207 256.82277344 -195.4387207 257.84277344 C-194.7787207 257.84277344 -194.1187207 257.84277344 -193.4387207 257.84277344 C-193.11109741 258.66044189 -193.11109741 258.66044189 -192.77685547 259.49462891 C-190.99698432 262.6179277 -188.58183256 264.92700314 -186.02856445 267.41308594 C-185.23730919 268.19653885 -185.23730919 268.19653885 -184.43006897 268.99581909 C-182.75014941 270.65797677 -181.06367799 272.31327149 -179.3762207 273.96777344 C-177.68609054 275.63028317 -175.9974435 277.29423298 -174.31166077 278.96115112 C-173.26381099 279.99674564 -172.21329957 281.02965526 -171.15989685 282.05960083 C-167.55045262 285.61930961 -167.55045262 285.61930961 -166.4387207 287.84277344 C-165.7787207 287.84277344 -165.1187207 287.84277344 -164.4387207 287.84277344 C-164.4387207 288.50277344 -164.4387207 289.16277344 -164.4387207 289.84277344 C-163.7787207 289.84277344 -163.1187207 289.84277344 -162.4387207 289.84277344 C-162.4387207 290.50277344 -162.4387207 291.16277344 -162.4387207 291.84277344 C-161.7787207 291.84277344 -161.1187207 291.84277344 -160.4387207 291.84277344 C-160.4387207 292.50277344 -160.4387207 293.16277344 -160.4387207 293.84277344 C-159.7787207 293.84277344 -159.1187207 293.84277344 -158.4387207 293.84277344 C-158.05200195 294.71675781 -158.05200195 294.71675781 -157.6574707 295.60839844 C-156.34038054 298.02306374 -154.88783686 299.66017521 -152.9387207 301.59277344 C-152.02606445 302.51316406 -152.02606445 302.51316406 -151.0949707 303.45214844 C-149.54387793 305.05711431 -149.54387793 305.05711431 -147.4387207 304.84277344 C-147.4387207 305.50277344 -147.4387207 306.16277344 -147.4387207 306.84277344 C-146.7787207 306.84277344 -146.1187207 306.84277344 -145.4387207 306.84277344 C-145.2118457 307.37902344 -144.9849707 307.91527344 -144.7512207 308.46777344 C-142.98301981 311.66737505 -140.90201868 314.13314567 -138.4387207 316.84277344 C-137.7787207 316.84277344 -137.1187207 316.84277344 -136.4387207 316.84277344 C-136.4387207 317.50277344 -136.4387207 318.16277344 -136.4387207 318.84277344 C-134.92152088 320.3773471 -134.92152088 320.3773471 -132.9387207 321.96777344 C-121.52302303 331.67416879 -121.52302303 331.67416879 -119.4387207 335.84277344 C-118.7787207 335.84277344 -118.1187207 335.84277344 -117.4387207 335.84277344 C-117.4387207 336.50277344 -117.4387207 337.16277344 -117.4387207 337.84277344 C-115.75066438 339.51155065 -115.75066438 339.51155065 -113.6262207 341.21777344 C-111.37621214 343.07843626 -109.53521785 344.71150047 -107.80200195 347.06933594 C-107.35211914 347.65457031 -106.90223633 348.23980469 -106.4387207 348.84277344 C-105.7787207 348.84277344 -105.1187207 348.84277344 -104.4387207 348.84277344 C-104.19323486 349.41495605 -103.94774902 349.98713867 -103.69482422 350.57666016 C-102.22603287 353.22647964 -100.50736022 354.98376627 -98.34106445 357.10058594 C-97.53991211 357.89078125 -96.73875977 358.68097656 -95.91333008 359.49511719 C-94.65746094 360.71908203 -94.65746094 360.71908203 -93.3762207 361.96777344 C-91.71649448 363.5931605 -90.05883323 365.22065971 -88.40356445 366.85058594 C-87.6674292 367.56875488 -86.93129395 368.28692383 -86.17285156 369.02685547 C-84.4387207 370.84277344 -84.4387207 370.84277344 -83.4387207 372.84277344 C-82.7787207 372.84277344 -82.1187207 372.84277344 -81.4387207 372.84277344 C-81.4387207 373.50277344 -81.4387207 374.16277344 -81.4387207 374.84277344 C-80.7787207 374.84277344 -80.1187207 374.84277344 -79.4387207 374.84277344 C-79.4387207 375.50277344 -79.4387207 376.16277344 -79.4387207 376.84277344 C-78.7787207 376.84277344 -78.1187207 376.84277344 -77.4387207 376.84277344 C-77.4387207 377.50277344 -77.4387207 378.16277344 -77.4387207 378.84277344 C-76.7787207 378.84277344 -76.1187207 378.84277344 -75.4387207 378.84277344 C-75.4387207 379.50277344 -75.4387207 380.16277344 -75.4387207 380.84277344 C-73.45611645 382.53009621 -71.4554865 384.19643401 -69.4387207 385.84277344 C-69.1087207 386.50277344 -68.7787207 387.16277344 -68.4387207 387.84277344 C-67.7787207 387.84277344 -67.1187207 387.84277344 -66.4387207 387.84277344 C-66.4387207 388.50277344 -66.4387207 389.16277344 -66.4387207 389.84277344 C-65.7787207 389.84277344 -65.1187207 389.84277344 -64.4387207 389.84277344 C-64.4387207 390.50277344 -64.4387207 391.16277344 -64.4387207 391.84277344 C-63.7787207 391.84277344 -63.1187207 391.84277344 -62.4387207 391.84277344 C-62.22642822 392.3817627 -62.01413574 392.92075195 -61.79541016 393.47607422 C-59.93709348 396.71784529 -57.38456671 399.12287703 -54.73168945 401.70996094 C-54.16928055 402.26716827 -53.60687164 402.82437561 -53.02742004 403.39846802 C-51.23171791 405.17640108 -49.42948133 406.94750957 -47.6262207 408.71777344 C-45.83451595 410.48171292 -44.04434535 412.24714053 -42.25715637 414.01565552 C-41.14692804 415.11378873 -40.0340387 416.20924072 -38.91801453 417.30148315 C-36.34516587 419.84162237 -33.94393868 422.40285528 -31.68212891 425.22607422 C-30.9418042 426.08958496 -30.20147949 426.9530957 -29.4387207 427.84277344 C-28.7787207 427.84277344 -28.1187207 427.84277344 -27.4387207 427.84277344 C-27.19847168 428.40899414 -26.95822266 428.97521484 -26.71069336 429.55859375 C-25.17676959 432.31317931 -23.33146052 434.17527015 -21.0871582 436.38964844 C-20.23637695 437.23398437 -19.3855957 438.07832031 -18.5090332 438.94824219 C-17.61958008 439.8209375 -16.73012695 440.69363281 -15.8137207 441.59277344 C-14.9165332 442.4809375 -14.0193457 443.36910156 -13.0949707 444.28417969 C-10.88065066 446.47494313 -8.66179635 448.66090107 -6.4387207 450.84277344 C-5.09974487 449.8923397 -3.76766643 448.93218197 -2.4387207 447.96777344 C-1.6962207 447.43410156 -0.9537207 446.90042969 -0.1887207 446.35058594 C0.3887793 445.85300781 0.9662793 445.35542969 1.5612793 444.84277344 C1.5612793 444.18277344 1.5612793 443.52277344 1.5612793 442.84277344 C2.2212793 442.84277344 2.8812793 442.84277344 3.5612793 442.84277344 C3.5612793 442.18277344 3.5612793 441.52277344 3.5612793 440.84277344 C4.2212793 440.84277344 4.8812793 440.84277344 5.5612793 440.84277344 C7.27584341 439.22542207 8.93261202 437.54659222 10.5612793 435.84277344 C11.53314566 434.86096328 12.50742641 433.88153824 13.48388672 432.90429688 C13.99759323 432.38736267 14.51129974 431.87042847 15.04057312 431.33782959 C17.33754956 429.02742558 19.63723229 426.7197229 21.93701172 424.41210938 C23.15111214 423.19293725 24.36431985 421.97287551 25.57666016 420.75195312 C27.33352249 418.98301044 29.09355195 417.21727421 30.85424805 415.45214844 C31.39695847 414.90427673 31.93966888 414.35640503 32.49882507 413.79193115 C36.33353749 409.95664434 36.33353749 409.95664434 38.5612793 408.84277344 C38.5612793 408.18277344 38.5612793 407.52277344 38.5612793 406.84277344 C39.2212793 406.84277344 39.8812793 406.84277344 40.5612793 406.84277344 C40.5612793 406.18277344 40.5612793 405.52277344 40.5612793 404.84277344 C41.1594043 404.57464844 41.7575293 404.30652344 42.3737793 404.03027344 C44.55975783 402.84359937 45.97460524 401.74678231 47.5612793 399.84277344 C47.5612793 399.18277344 47.5612793 398.52277344 47.5612793 397.84277344 C48.2212793 397.84277344 48.8812793 397.84277344 49.5612793 397.84277344 C49.5612793 397.18277344 49.5612793 396.52277344 49.5612793 395.84277344 C50.2212793 395.84277344 50.8812793 395.84277344 51.5612793 395.84277344 C51.5612793 395.18277344 51.5612793 394.52277344 51.5612793 393.84277344 C52.13346191 393.5972876 52.70564453 393.35180176 53.29516602 393.09887695 C55.9449855 391.63008561 57.70227213 389.91141296 59.8190918 387.74511719 C60.60928711 386.94396484 61.39948242 386.1428125 62.21362305 385.31738281 C63.02959961 384.48013672 63.84557617 383.64289063 64.6862793 382.78027344 C66.31166636 381.12054721 67.93916557 379.46288597 69.5690918 377.80761719 C70.28726074 377.07148193 71.00542969 376.33534668 71.74536133 375.5769043 C73.5612793 373.84277344 73.5612793 373.84277344 75.5612793 372.84277344 C75.5612793 372.18277344 75.5612793 371.52277344 75.5612793 370.84277344 C76.2212793 370.84277344 76.8812793 370.84277344 77.5612793 370.84277344 C77.5612793 370.18277344 77.5612793 369.52277344 77.5612793 368.84277344 C78.43526367 368.45605469 78.43526367 368.45605469 79.3269043 368.06152344 C81.7415696 366.74443327 83.37868107 365.2918896 85.3112793 363.34277344 C85.92487305 362.73433594 86.5384668 362.12589844 87.1706543 361.49902344 C88.77562017 359.94793067 88.77562017 359.94793067 88.5612793 357.84277344 C89.2212793 357.84277344 89.8812793 357.84277344 90.5612793 357.84277344 C90.5612793 357.18277344 90.5612793 356.52277344 90.5612793 355.84277344 C92.5612793 354.84277344 94.5612793 353.84277344 96.5612793 352.84277344 C96.5612793 352.18277344 96.5612793 351.52277344 96.5612793 350.84277344 C97.2212793 350.84277344 97.8812793 350.84277344 98.5612793 350.84277344 C98.5612793 350.18277344 98.5612793 349.52277344 98.5612793 348.84277344 C99.2212793 348.84277344 99.8812793 348.84277344 100.5612793 348.84277344 C100.5612793 348.18277344 100.5612793 347.52277344 100.5612793 346.84277344 C101.2212793 346.84277344 101.8812793 346.84277344 102.5612793 346.84277344 C104.23005651 345.15471712 104.23005651 345.15471712 105.9362793 343.03027344 C107.79694212 340.78026487 109.43000633 338.93927058 111.7878418 337.20605469 C112.37307617 336.75617188 112.95831055 336.30628906 113.5612793 335.84277344 C113.5612793 335.18277344 113.5612793 334.52277344 113.5612793 333.84277344 C114.2212793 333.84277344 114.8812793 333.84277344 115.5612793 333.84277344 C115.5612793 333.18277344 115.5612793 332.52277344 115.5612793 331.84277344 C116.2212793 331.84277344 116.8812793 331.84277344 117.5612793 331.84277344 C117.5612793 331.18277344 117.5612793 330.52277344 117.5612793 329.84277344 C118.2212793 329.84277344 118.8812793 329.84277344 119.5612793 329.84277344 C119.5612793 329.18277344 119.5612793 328.52277344 119.5612793 327.84277344 C120.2212793 327.84277344 120.8812793 327.84277344 121.5612793 327.84277344 C121.5612793 327.18277344 121.5612793 326.52277344 121.5612793 325.84277344 C122.12878906 325.60196045 122.69629883 325.36114746 123.28100586 325.11303711 C126.02128565 323.58651936 127.85167221 321.76076377 130.0456543 319.51855469 C130.89901367 318.65423828 131.75237305 317.78992188 132.6315918 316.89941406 C133.51588867 315.99384766 134.40018555 315.08828125 135.3112793 314.15527344 C140.62889325 308.73114942 145.93516547 303.41178353 151.70776367 298.47143555 C154.76550242 295.78463692 157.59326548 292.87815725 160.4362793 289.96777344 C166.29497495 283.97592561 166.29497495 283.97592561 168.5612793 282.84277344 C168.5612793 282.18277344 168.5612793 281.52277344 168.5612793 280.84277344 C169.2212793 280.84277344 169.8812793 280.84277344 170.5612793 280.84277344 C170.5612793 280.18277344 170.5612793 279.52277344 170.5612793 278.84277344 C171.2212793 278.84277344 171.8812793 278.84277344 172.5612793 278.84277344 C174.29821087 277.08755396 174.29821087 277.08755396 176.0612793 274.90527344 C179.35886238 270.9439819 179.35886238 270.9439819 181.5612793 269.84277344 C181.5612793 269.18277344 181.5612793 268.52277344 181.5612793 267.84277344 C182.2212793 267.84277344 182.8812793 267.84277344 183.5612793 267.84277344 C183.5612793 267.18277344 183.5612793 266.52277344 183.5612793 265.84277344 C184.2212793 265.84277344 184.8812793 265.84277344 185.5612793 265.84277344 C185.5612793 265.18277344 185.5612793 264.52277344 185.5612793 263.84277344 C186.2212793 263.84277344 186.8812793 263.84277344 187.5612793 263.84277344 C187.5612793 263.18277344 187.5612793 262.52277344 187.5612793 261.84277344 C188.2212793 261.84277344 188.8812793 261.84277344 189.5612793 261.84277344 C189.5612793 261.18277344 189.5612793 260.52277344 189.5612793 259.84277344 C190.2212793 259.84277344 190.8812793 259.84277344 191.5612793 259.84277344 C191.5612793 259.18277344 191.5612793 258.52277344 191.5612793 257.84277344 C192.44444824 257.44856201 192.44444824 257.44856201 193.34545898 257.04638672 C195.66467171 255.78661163 197.17077332 254.46273322 199.0144043 252.58496094 C199.6331543 251.95976562 200.2519043 251.33457031 200.8894043 250.69042969 C201.52362305 250.03945312 202.1578418 249.38847656 202.8112793 248.71777344 C203.4609668 248.0590625 204.1106543 247.40035156 204.7800293 246.72167969 C206.37839657 245.09980701 207.97189827 243.47344534 209.5612793 241.84277344 C206.25845805 237.91759092 202.93671287 234.10363043 199.2487793 230.53027344 C195.6703366 227.06088804 195.6703366 227.06088804 194.5612793 224.84277344 C193.9012793 224.84277344 193.2412793 224.84277344 192.5612793 224.84277344 C192.5612793 224.18277344 192.5612793 223.52277344 192.5612793 222.84277344 C191.9012793 222.84277344 191.2412793 222.84277344 190.5612793 222.84277344 C190.5612793 222.18277344 190.5612793 221.52277344 190.5612793 220.84277344 C189.9012793 220.84277344 189.2412793 220.84277344 188.5612793 220.84277344 C188.5612793 220.18277344 188.5612793 219.52277344 188.5612793 218.84277344 C187.9012793 218.84277344 187.2412793 218.84277344 186.5612793 218.84277344 C186.2312793 217.85277344 185.9012793 216.86277344 185.5612793 215.84277344 C184.9012793 215.84277344 184.2412793 215.84277344 183.5612793 215.84277344 C183.5612793 215.18277344 183.5612793 214.52277344 183.5612793 213.84277344 C182.9012793 213.84277344 182.2412793 213.84277344 181.5612793 213.84277344 C181.5612793 213.18277344 181.5612793 212.52277344 181.5612793 211.84277344 C180.9012793 211.84277344 180.2412793 211.84277344 179.5612793 211.84277344 C179.5612793 211.18277344 179.5612793 210.52277344 179.5612793 209.84277344 C178.9012793 209.84277344 178.2412793 209.84277344 177.5612793 209.84277344 C177.31740479 209.27292725 177.07353027 208.70308105 176.82226562 208.1159668 C175.33243409 205.43023177 173.57222754 203.6280217 171.38549805 201.47167969 C170.55727539 200.64990234 169.72905273 199.828125 168.87573242 198.98144531 C167.57539062 197.70624023 167.57539062 197.70624023 166.2487793 196.40527344 C165.39348633 195.55900391 164.53819336 194.71273437 163.65698242 193.84082031 C162.00744192 192.20916793 160.3559867 190.57944842 158.70239258 188.9519043 C156.30941807 186.59467434 153.93435435 184.2200191 151.5612793 181.84277344 C150.68987305 180.98296875 149.8184668 180.12316406 148.9206543 179.23730469 C148.05956055 178.38523438 147.1984668 177.53316406 146.3112793 176.65527344 C145.43987305 175.79546875 144.5684668 174.93566406 143.6706543 174.04980469 C141.5612793 171.84277344 141.5612793 171.84277344 140.5612793 169.84277344 C139.9012793 169.84277344 139.2412793 169.84277344 138.5612793 169.84277344 C138.5612793 169.18277344 138.5612793 168.52277344 138.5612793 167.84277344 C137.9012793 167.84277344 137.2412793 167.84277344 136.5612793 167.84277344 C136.5612793 167.18277344 136.5612793 166.52277344 136.5612793 165.84277344 C135.9012793 165.84277344 135.2412793 165.84277344 134.5612793 165.84277344 C134.33384033 165.2886377 134.10640137 164.73450195 133.87207031 164.16357422 C132.18060497 161.16877639 130.04345568 159.11911108 127.58862305 156.70996094 C127.10551163 156.23205109 126.62240021 155.75414124 126.12464905 155.26174927 C124.58738889 153.74223729 123.04358603 152.22960954 121.4987793 150.71777344 C119.95130452 149.19792785 118.40532003 147.67663925 116.86219788 146.15237427 C115.46557128 144.77358601 114.06419607 143.39961279 112.66259766 142.02587891 C110.5612793 139.84277344 110.5612793 139.84277344 109.5612793 137.84277344 C108.9012793 137.84277344 108.2412793 137.84277344 107.5612793 137.84277344 C107.5612793 137.18277344 107.5612793 136.52277344 107.5612793 135.84277344 C105.22794596 133.17610677 105.22794596 133.17610677 102.5612793 130.84277344 C101.9012793 130.84277344 101.2412793 130.84277344 100.5612793 130.84277344 C100.5612793 130.18277344 100.5612793 129.52277344 100.5612793 128.84277344 C99.9012793 128.84277344 99.2412793 128.84277344 98.5612793 128.84277344 C98.5612793 128.18277344 98.5612793 127.52277344 98.5612793 126.84277344 C97.9012793 126.84277344 97.2412793 126.84277344 96.5612793 126.84277344 C96.5612793 126.18277344 96.5612793 125.52277344 96.5612793 124.84277344 C95.9012793 124.84277344 95.2412793 124.84277344 94.5612793 124.84277344 C94.5612793 124.18277344 94.5612793 123.52277344 94.5612793 122.84277344 C93.9012793 122.84277344 93.2412793 122.84277344 92.5612793 122.84277344 C92.5612793 122.18277344 92.5612793 121.52277344 92.5612793 120.84277344 C91.9012793 120.84277344 91.2412793 120.84277344 90.5612793 120.84277344 C90.5612793 120.18277344 90.5612793 119.52277344 90.5612793 118.84277344 C89.9012793 118.84277344 89.2412793 118.84277344 88.5612793 118.84277344 C88.2312793 117.85277344 87.9012793 116.86277344 87.5612793 115.84277344 C86.9012793 115.84277344 86.2412793 115.84277344 85.5612793 115.84277344 C85.5612793 115.18277344 85.5612793 114.52277344 85.5612793 113.84277344 C84.9012793 113.84277344 84.2412793 113.84277344 83.5612793 113.84277344 C83.5612793 113.18277344 83.5612793 112.52277344 83.5612793 111.84277344 C82.9012793 111.84277344 82.2412793 111.84277344 81.5612793 111.84277344 C81.5612793 111.18277344 81.5612793 110.52277344 81.5612793 109.84277344 C80.9012793 109.84277344 80.2412793 109.84277344 79.5612793 109.84277344 C79.33384033 109.2886377 79.10640137 108.73450195 78.87207031 108.16357422 C77.18060497 105.16877639 75.04345568 103.11911108 72.58862305 100.70996094 C72.10551163 100.23205109 71.62240021 99.75414124 71.12464905 99.26174927 C69.58738889 97.74223729 68.04358603 96.22960954 66.4987793 94.71777344 C64.95130452 93.19792785 63.40532003 91.67663925 61.86219788 90.15237427 C60.46557128 88.77358601 59.06419607 87.39961279 57.66259766 86.02587891 C55.5612793 83.84277344 55.5612793 83.84277344 54.5612793 81.84277344 C53.9012793 81.84277344 53.2412793 81.84277344 52.5612793 81.84277344 C52.5612793 81.18277344 52.5612793 80.52277344 52.5612793 79.84277344 C51.9012793 79.84277344 51.2412793 79.84277344 50.5612793 79.84277344 C50.5612793 79.18277344 50.5612793 78.52277344 50.5612793 77.84277344 C49.9012793 77.84277344 49.2412793 77.84277344 48.5612793 77.84277344 C48.25395874 77.04540771 48.25395874 77.04540771 47.94042969 76.23193359 C45.98675405 72.84749922 43.2683442 70.32500043 40.49487305 67.61621094 C39.9007814 67.02732086 39.30668976 66.43843079 38.69459534 65.83169556 C36.80068656 63.95556536 34.90021498 62.08627238 32.9987793 60.21777344 C31.09466487 58.34126879 29.19202491 56.46332767 27.29225159 54.58242798 C26.1108538 53.4132962 24.92679328 52.24684786 23.73985291 51.08334351 C19.67301121 47.06623727 19.67301121 47.06623727 18.5612793 44.84277344 C17.9012793 44.84277344 17.2412793 44.84277344 16.5612793 44.84277344 C16.5612793 44.18277344 16.5612793 43.52277344 16.5612793 42.84277344 C15.9012793 42.84277344 15.2412793 42.84277344 14.5612793 42.84277344 C14.5612793 42.18277344 14.5612793 41.52277344 14.5612793 40.84277344 C13.9012793 40.84277344 13.2412793 40.84277344 12.5612793 40.84277344 C12.5612793 40.18277344 12.5612793 39.52277344 12.5612793 38.84277344 C11.9012793 38.84277344 11.2412793 38.84277344 10.5612793 38.84277344 C10.1590918 37.88371094 10.1590918 37.88371094 9.7487793 36.90527344 C8.67460177 34.51145658 8.67460177 34.51145658 5.5612793 33.84277344 C5.5612793 33.18277344 5.5612793 32.52277344 5.5612793 31.84277344 C4.9012793 31.84277344 4.2412793 31.84277344 3.5612793 31.84277344 C3.2931543 31.22402344 3.0250293 30.60527344 2.7487793 29.96777344 C1.60571081 27.54325014 1.60571081 27.54325014 -1.4387207 25.84277344 Z " fill="#0F0F0F" transform="translate(242.438720703125,0.1572265625)"/>
<path d="M0 0 C8.91 0 17.82 0 27 0 C26.92136719 2.48273438 26.84273437 4.96546875 26.76171875 7.5234375 C26.72983174 9.9596986 26.72044363 12.39509831 26.71313477 14.83154297 C26.69622133 16.50967761 26.65633815 18.18775837 26.59204102 19.86474609 C26.00266448 29.24672233 26.00266448 29.24672233 29.2588501 37.7388916 C32.73364195 41.22012155 36.7218865 43.62302305 41 46 C42.698098 46.94564314 44.37822947 47.92872126 46 49 C46 49.66 46 50.32 46 51 C46.721875 51.268125 47.44375 51.53625 48.1875 51.8125 C50.97590126 52.98982498 53.44095724 54.39145884 56 56 C56.55429688 55.4946875 57.10859375 54.989375 57.6796875 54.46875 C58.40414062 53.8190625 59.12859375 53.169375 59.875 52.5 C60.59429687 51.8503125 61.31359375 51.200625 62.0546875 50.53125 C64 49 64 49 66 49 C66 48.34 66 47.68 66 47 C67.6796875 45.4921875 67.6796875 45.4921875 69.875 43.875 C70.59429687 43.33617187 71.31359375 42.79734375 72.0546875 42.2421875 C74 41 74 41 76 41 C76.28875 40.401875 76.5775 39.80375 76.875 39.1875 C78 37 78 37 80 34 C80.2402117 31.39206609 80.37263695 28.88112855 80.4140625 26.26953125 C80.43342865 25.51911057 80.4527948 24.76868988 80.4727478 23.99552917 C80.53247459 21.60130133 80.57890065 19.20702523 80.625 16.8125 C80.6631862 15.1881302 80.70223831 13.56378052 80.7421875 11.93945312 C80.83979925 7.95974072 80.91941976 3.98023962 81 0 C89.58 0 98.16 0 107 0 C107.13843704 5.94253825 107.25765386 11.87939403 107.32958984 17.82226562 C107.35959984 19.83971197 107.40042213 21.85702964 107.45263672 23.87402344 C107.96226256 44.079189 107.96226256 44.079189 102.49462891 51.59033203 C101 53 101 53 99 53 C99 53.66 99 54.32 99 55 C94.52941176 59 94.52941176 59 92 59 C92 59.66 92 60.32 92 61 C89.26763135 63.22192615 86.46733097 65.29612092 83.62109375 67.3671875 C82.04822935 68.53560106 80.52017583 69.76381307 79 71 C79 71.66 79 72.32 79 73 C80.98 73.99 80.98 73.99 83 75 C83 75.66 83 76.32 83 77 C84.65 77.66 86.3 78.32 88 79 C88 79.66 88 80.32 88 81 C88.66 81.20625 89.32 81.4125 90 81.625 C95.08918848 83.95754472 99.86729932 86.82899037 102.5 91.875 C102.665 92.57625 102.83 93.2775 103 94 C103.66 94 104.32 94 105 94 C107.5539464 98.86487021 107.25565129 103.54742509 107.1953125 108.89453125 C107.1924826 109.84188644 107.18965271 110.78924164 107.18673706 111.76530457 C107.17557187 114.78116666 107.15047389 117.79672816 107.125 120.8125 C107.11496547 122.86132383 107.10584045 124.91015232 107.09765625 126.95898438 C107.07564449 131.97277148 107.04113971 136.98633483 107 142 C102.96359455 142.8653737 99.2616328 143.13405171 95.125 143.125 C93.95195312 143.12757813 92.77890625 143.13015625 91.5703125 143.1328125 C87.98199041 142.99933006 84.54812079 142.53240316 81 142 C80.97494385 140.99098633 80.9498877 139.98197266 80.92407227 138.94238281 C80.82977591 135.19258304 80.72960979 131.44295892 80.62768555 127.69335938 C80.58442069 126.07165643 80.54273972 124.44991042 80.50268555 122.828125 C80.44477786 120.49465973 80.38114302 118.16140957 80.31640625 115.828125 C80.29969376 115.10506165 80.28298126 114.38199829 80.26576233 113.63702393 C80.1872805 108.72173711 80.1872805 108.72173711 79 104 C77.34406246 103.30711251 75.67386723 102.64837545 74 102 C71.08620558 100.00670482 68.33347391 97.81096378 65.5625 95.625 C60.80728035 91.90388489 56.08007141 88.26863549 51 85 C51 85.66 51 86.32 51 87 C49.1015625 88.7265625 49.1015625 88.7265625 46.625 90.625 C45.81289062 91.25664062 45.00078125 91.88828125 44.1640625 92.5390625 C42 94 42 94 40 94 C40 94.66 40 95.32 40 96 C35.52941176 100 35.52941176 100 33 100 C33 100.66 33 101.32 33 102 C32.18958252 102.53077148 31.37916504 103.06154297 30.54418945 103.60839844 C27.63713664 105.86241875 27.63713664 105.86241875 27.34057617 109.75878906 C27.29962913 111.26059341 27.28526387 112.7632823 27.29296875 114.265625 C27.27784744 115.05902283 27.26272614 115.85242065 27.24714661 116.66986084 C27.20425621 119.19686268 27.19543095 121.72267039 27.1875 124.25 C27.16435653 125.96617761 27.13899149 127.6823268 27.11132812 129.3984375 C27.04846326 133.59906394 27.01613843 137.79894466 27 142 C23.40769494 142.65226311 19.97929539 143.12733496 16.328125 143.1328125 C15.49925781 143.13410156 14.67039063 143.13539063 13.81640625 143.13671875 C12.96949219 143.13285156 12.12257812 143.12898437 11.25 143.125 C10.38761719 143.12886719 9.52523437 143.13273438 8.63671875 143.13671875 C7.40115234 143.13478516 7.40115234 143.13478516 6.140625 143.1328125 C5.39329102 143.13168457 4.64595703 143.13055664 3.87597656 143.12939453 C2 143 2 143 0 142 C-0.09977129 136.64727048 -0.1718895 131.29509643 -0.21972656 125.94165039 C-0.23969343 124.12514807 -0.26687687 122.30870879 -0.30175781 120.49243164 C-0.74345651 96.88103811 -0.74345651 96.88103811 7.4375 87.9375 C10.08367002 85.5536658 12.51346497 83.95087319 16 83 C16 82.34 16 81.68 16 81 C20.47058824 77 20.47058824 77 23 77 C23 76.34 23 75.68 23 75 C25 73.66666667 27 72.33333333 29 71 C29 70.34 29 69.68 29 69 C26.5312194 67.19335595 24.05409824 65.49046514 21.5 63.8125 C3.13917829 51.45895011 3.13917829 51.45895011 0.41900635 40.25439453 C-0.28432206 36.47025204 -0.24546193 32.74383081 -0.1953125 28.90625 C-0.1924826 28.07411987 -0.18965271 27.24198975 -0.18673706 26.38464355 C-0.17564286 23.75627569 -0.15055925 21.1282629 -0.125 18.5 C-0.11495626 16.70573413 -0.10583286 14.91146285 -0.09765625 13.1171875 C-0.07744997 8.74454857 -0.0382821 4.37266643 0 0 Z " fill="#0B0B0B" transform="translate(121,168)"/>
<path d="M0 0 C12.601875 -0.103125 25.20375 -0.20625 38.1875 -0.3125 C44.11819458 -0.38078003 44.11819458 -0.38078003 50.16870117 -0.45043945 C55.06115723 -0.47302246 55.06115723 -0.47302246 57.3639679 -0.47721863 C58.94513522 -0.48481058 60.52627676 -0.50221404 62.10725403 -0.52787781 C73.73558928 -0.70691937 84.36499487 -0.22330191 93.9375 7.3125 C94.618125 8.199375 95.29875 9.08625 96 10 C96.74830078 10.82757813 96.74830078 10.82757813 97.51171875 11.671875 C105.02449322 20.47619182 105.2508075 30.58901955 105.3125 41.6875 C105.31813965 42.66146729 105.3237793 43.63543457 105.32958984 44.63891602 C105.25180534 52.39561269 104.64444327 59.93998784 100.625 66.75 C100.22539062 67.44609375 99.82578125 68.1421875 99.4140625 68.859375 C96.11599673 73.85202705 93.41254607 76.67191139 87.9375 79.25 C86.37322266 80.00023437 86.37322266 80.00023437 84.77734375 80.765625 C80.87695488 82.49913116 78.02722448 83.12358011 73.79418945 83.11352539 C72.18066589 83.11334412 72.18066589 83.11334412 70.5345459 83.11315918 C69.40552856 83.10804321 68.27651123 83.10292725 67.11328125 83.09765625 C66.07441772 83.09664917 65.0355542 83.09564209 63.96520996 83.09460449 C60.08096209 83.0893687 56.19672995 83.07540745 52.3125 83.0625 C43.629375 83.041875 34.94625 83.02125 26 83 C26 102.47 26 121.94 26 142 C21.59187196 142.73468801 17.95705315 143.13555115 13.5625 143.125 C12.49128906 143.12757813 11.42007812 143.13015625 10.31640625 143.1328125 C6.85970529 142.9943816 3.42470229 142.48924318 0 142 C0 95.14 0 48.28 0 0 Z M26 24 C26 35.55 26 47.1 26 59 C32.60266663 59.09188094 39.20311138 59.17150633 45.8059082 59.21972656 C48.05142741 59.2398294 50.29689435 59.26711605 52.54223633 59.30175781 C55.7717784 59.3503331 59.00062775 59.37298237 62.23046875 59.390625 C63.23272995 59.41127014 64.23499115 59.43191528 65.2676239 59.45318604 C69.70350849 59.45461086 72.25923501 59.45233118 76.1105957 57.10058594 C80.18443725 52.57140482 79.25924883 47.51317822 79.3125 41.6875 C79.34150391 40.64142578 79.37050781 39.59535156 79.40039062 38.51757812 C79.48777079 32.37566028 79.48777079 32.37566028 77.10546875 26.83203125 C74.04670178 24.17050674 72.42314988 23.87587393 68.45849609 23.88647461 C67.04725967 23.88658791 67.04725967 23.88658791 65.60751343 23.88670349 C64.08089584 23.89444542 64.08089584 23.89444542 62.5234375 23.90234375 C60.96286118 23.90446617 60.96286118 23.90446617 59.37075806 23.90663147 C56.03880979 23.91224134 52.70692805 23.92479553 49.375 23.9375 C47.11979264 23.94251373 44.86458422 23.94707686 42.609375 23.95117188 C37.07287025 23.96136426 31.53650983 23.9809378 26 24 Z " fill="#090909" transform="translate(266,168)"/>
<path d="M0 0 C0 3 0 3 -1.25341797 4.62573242 C-1.82721191 5.19654541 -2.40100586 5.7673584 -2.9921875 6.35546875 C-3.61480469 6.97744141 -4.23742187 7.59941406 -4.87890625 8.24023438 C-5.53761719 8.88283203 -6.19632812 9.52542969 -6.875 10.1875 C-7.52597656 10.84169922 -8.17695313 11.49589844 -8.84765625 12.16992188 C-13.73313673 17 -13.73313673 17 -16 17 C-16.268125 17.598125 -16.53625 18.19625 -16.8125 18.8125 C-17.98493467 20.97224808 -19.19369282 22.35790256 -21 24 C-21.99 23.67 -22.98 23.34 -24 23 C-22.21427748 21.16052663 -20.42197551 19.32842259 -18.625 17.5 C-18.11710937 16.97535156 -17.60921875 16.45070313 -17.0859375 15.91015625 C-15.76167396 14.56846819 -14.38394135 13.28004185 -13 12 C-12.34 12 -11.68 12 -11 12 C-11 11.34 -11 10.68 -11 10 C-10.34 10 -9.68 10 -9 10 C-9 9.34 -9 8.68 -9 8 C-7.28515625 6.30859375 -7.28515625 6.30859375 -5.0625 4.4375 C-4.33160156 3.81746094 -3.60070312 3.19742187 -2.84765625 2.55859375 C-2.23792969 2.04425781 -1.62820313 1.52992188 -1 1 C-0.67 0.67 -0.34 0.34 0 0 Z " fill="#454545" transform="translate(329,361)"/>
<path d="M0 0 C0.66 0.33 1.32 0.66 2 1 C-1.77649227 6.16541496 -5.51692082 10.79047874 -10.51953125 14.80859375 C-12.14329722 16.07159089 -12.14329722 16.07159089 -14 18 C-14.99 17.67 -15.98 17.34 -17 17 C-15.21427748 15.16052663 -13.42197551 13.32842259 -11.625 11.5 C-11.11710937 10.97535156 -10.60921875 10.45070312 -10.0859375 9.91015625 C-8.76167396 8.56846819 -7.38394135 7.28004185 -6 6 C-5.34 6 -4.68 6 -4 6 C-4 5.34 -4 4.68 -4 4 C-3.34 4 -2.68 4 -2 4 C-2 3.34 -2 2.68 -2 2 C-1.34 2 -0.68 2 0 2 C0 1.34 0 0.68 0 0 Z " fill="#545454" transform="translate(62,173)"/>
<path d="M0 0 C0.33 0.99 0.66 1.98 1 3 C-1.28356246 5.34138543 -3.57813374 7.67166982 -5.875 10 C-6.85146484 11.00160156 -6.85146484 11.00160156 -7.84765625 12.0234375 C-8.47285156 12.65507813 -9.09804687 13.28671875 -9.7421875 13.9375 C-10.3182373 14.52402344 -10.89428711 15.11054687 -11.48779297 15.71484375 C-13 17 -13 17 -15 17 C-15 16.34 -15 15.68 -15 15 C-14.34 15 -13.68 15 -13 15 C-13 14.34 -13 13.68 -13 13 C-12.34 13 -11.68 13 -11 13 C-10.773125 12.443125 -10.54625 11.88625 -10.3125 11.3125 C-8.62449964 8.33840412 -6.53323483 6.27991135 -4 4 C-3.34 4 -2.68 4 -2 4 C-2 3.34 -2 2.68 -2 2 C-1.34 2 -0.68 2 0 2 C0 1.34 0 0.68 0 0 Z " fill="#717171" transform="translate(189,49)"/>
<path d="M0 0 C0.66 0.33 1.32 0.66 2 1 C-2.76008307 6.5930976 -7.74595676 11.86877855 -13 17 C-13.99 16.67 -14.98 16.34 -16 16 C-11.61806285 11.51562795 -7.20950849 7.19135316 -2.34765625 3.2265625 C-0.86020853 2.02079718 -0.86020853 2.02079718 0 0 Z " fill="#595959" transform="translate(143,94)"/>
<path d="M0 0 C0 3 0 3 -1.6796875 5.04296875 C-2.76636719 6.10451172 -2.76636719 6.10451172 -3.875 7.1875 C-4.95394531 8.26064453 -4.95394531 8.26064453 -6.0546875 9.35546875 C-8 11 -8 11 -10 11 C-8.55218207 7.55571735 -6.72305391 5.63869038 -3.875 3.25 C-3.15054688 2.63640625 -2.42609375 2.0228125 -1.6796875 1.390625 C-0.84824219 0.70226562 -0.84824219 0.70226562 0 0 Z " fill="#686868" transform="translate(135,251)"/>
<path d="M0 0 C0 3.77910478 -0.99703962 4.46106101 -3.5 7.1875 C-4.1496875 7.90292969 -4.799375 8.61835938 -5.46875 9.35546875 C-5.9740625 9.89816406 -6.479375 10.44085938 -7 11 C-7.99 10.67 -8.98 10.34 -10 10 C-6.7 6.7 -3.4 3.4 0 0 Z " fill="#707070" transform="translate(315,374)"/>
<path d="M0 0 C0.66 0 1.32 0 2 0 C1.67 0.99 1.34 1.98 1 3 C0.34 3 -0.32 3 -1 3 C-1.2475 3.598125 -1.495 4.19625 -1.75 4.8125 C-3.16370012 7.28647521 -4.65055383 8.43370255 -7 10 C-7.66 9.67 -8.32 9.34 -9 9 C-7.88121617 7.82737096 -6.75476949 6.66204862 -5.625 5.5 C-4.68527344 4.52546875 -4.68527344 4.52546875 -3.7265625 3.53125 C-2 2 -2 2 0 2 C0 1.34 0 0.68 0 0 Z " fill="#676767" transform="translate(281,407)"/>
<path d="M0 0 C0 3 0 3 -1.75 5.04296875 C-2.4925 5.75066406 -3.235 6.45835937 -4 7.1875 C-4.7425 7.90292969 -5.485 8.61835938 -6.25 9.35546875 C-6.8275 9.89816406 -7.405 10.44085938 -8 11 C-8.99 10.67 -9.98 10.34 -11 10 C-10.34 10 -9.68 10 -9 10 C-9 9.34 -9 8.68 -9 8 C-8.34 8 -7.68 8 -7 8 C-6.67 7.01 -6.34 6.02 -6 5 C-4.12382302 3.15500602 -2.07262391 1.6316401 0 0 Z " fill="#535353" transform="translate(255,433)"/>
<path d="M0 0 C0.66 0.33 1.32 0.66 2 1 C-0.31 3.97 -2.62 6.94 -5 10 C-6.32 9.67 -7.64 9.34 -9 9 C-7.625 7.5 -7.625 7.5 -6 6 C-5.34 6 -4.68 6 -4 6 C-4 5.34 -4 4.68 -4 4 C-3.34 4 -2.68 4 -2 4 C-2 3.34 -2 2.68 -2 2 C-1.34 2 -0.68 2 0 2 C0 1.34 0 0.68 0 0 Z " fill="#5C5C5C" transform="translate(62,173)"/>
<path d="M0 0 C0.66 0 1.32 0 2 0 C2.33 1.32 2.66 2.64 3 4 C1.1875 5.5625 1.1875 5.5625 -1 7 C-1.99 6.67 -2.98 6.34 -4 6 C-3.34 5.195625 -2.68 4.39125 -2 3.5625 C0.10254514 1.41038085 0.10254514 1.41038085 0 0 Z " fill="#696969" transform="translate(451,240)"/>
</svg>
